{"title":"Apartment.4E.201","uid":8690208,"size":836837458,"categoryP":"video","categoryS":"movies","magnet":"?xt=urn:btih:17d93315fd8532ee4dc28f073b73d69d625edb2e&amp;dn=Apartment.4E.201&amp;tr=udp%3A%2F%2Ftracker.openbittorrent.com%3A80&amp;tr=udp%3A%2F%2Fopen.demonii.com%3A1337&amp;tr=udp%3A%2F%2Ftracker.coppersurfer.tk%3A6969&amp;tr=udp%3A%2F%2Fexodus.desync.com%3A6969","seeders":1,"leechers":0,"uploader":"LucilleD","files":-1,"time":1373871633,"description":" ** Apartment.4E.2012.480p**\n\n***********************************************************************************\n\nEncoder ..........: SeedFreak                                                      \nVideo Codec.......: AVC\nVideo Bitrate.....: 1 002 Kbps                            \nAudio Codec.......: AC3                             \nAudio Bitrate.....: 256 Kbps, 6 channels                          \nResolution........: 720X304, 23.976 fps\nRuntime...........: 1hr 27mn                     \nRelease Date......: 2012 (USA)  \nLanguage..........: English\nSubtitles.........: N/A\n\n\n_______________________________________________________________________________\n\n\nGeneral\n\n\nFormat                                   : Matroska\nFormat version                           : Version 2\nFile size                                : 787 MiB\nDuration                                 : 1h 27mn\nOverall bit rate                         : 1 259 Kbps\nEncoded date                             : UTC 2013-07-13 18:33:47\nWriting application                      : mkvmerge v6.2.0 ('Promised Land') built on Apr 28 2013 12:22:01\nWriting library                          : libebml v1.3.0 + libmatroska v1.4.0\n________________________________________________________________________________\n\nVideo\n\nID                                       : 1\nFormat                                   : AVC\nFormat/Info                              : Advanced Video Codec\nFormat profile                           : &lt;a class=&quot;__cf_email__&quot; href=&quot;/cdn-cgi/l/email-protection&quot; data-cfemail=&quot;b7ffded0dff7fb849987&quot;&gt;[email&amp;#160;protected]&lt;/a&gt;&lt;script cf-hash='f9e31' type=&quot;text/javascript&quot;&gt;\n/* &lt;![CDATA[ */!function(){try{var t=&quot;currentScript&quot;in document?document.currentScript:function(){for(var t=document.getElementsByTagName(&quot;script&quot;),e=t.length;e--;)if(t[e].getAttribute(&quot;cf-hash&quot;))return t[e]}();if(t&amp;&amp;t.previousSibling){var e,r,n,i,c=t.previousSibling,a=c.getAttribute(&quot;data-cfemail&quot;);if(a){for(e=&quot;&quot;,r=parseInt(a.substr(0,2),16),n=2;a.length-n;n+=2)i=parseInt(a.substr(n,2),16)^r,e+=String.fromCharCode(i);e=document.createTextNode(e),c.parentNode.replaceChild(e,c)}}}catch(u){}}();/* ]]&gt; */&lt;/script&gt;\nFormat settings, CABAC                   : Yes\nFormat settings, ReFrames                : 4 frames\nCodec ID                                 : V_MPEG4/ISO/AVC\nDuration                                 : 1h 27mn\nBit rate                                 : 1 002 Kbps\nWidth                                    : 720 pixels\nHeight                                   : 304 pixels\nDisplay aspect ratio                     : 2.35:1\nFrame rate mode                          : Constant\nFrame rate                               : 23.976 fps\nColor space                              : YUV\nChroma subsampling                       : 4:2:0\nBit depth                                : 8 bits\nScan type                                : Progressive\nBits/(Pixel*Frame)                       : 0.191\nStream size                              : 612 MiB (78%)\nWriting library                          : x264 core 133 r2334 a3ac64b\nDefault                                  : Yes\nForced                                   : No\n_________________________________________________________________________________\n\nAudio\n\nID                                       : 2\nFormat                                   : AC-3\nFormat/Info                              : Audio Coding 3\nMode extension                           : CM (complete main)\nFormat settings, Endianness              : Big\nCodec ID                                 : A_AC3\nDuration                                 : 1h 27mn\nBit rate mode                            : Constant\nBit rate                                 : 256 Kbps\nChannel(s)                               : 6 channels\nChannel positions                        : Front: L C R, Side: L R, LFE\nSampling rate                            : 48.0 KHz\nBit depth                                : 16 bits\nCompression mode                         : Lossy\nStream size                              : 160 MiB (20%)\nLanguage                                 : English\nDefault                                  : Yes\nForced                                   : No\n_________________________________________________________________________________\n\nSOURCES: Apartment.4E.2012.720p.WEB-DL.X264-WEBiOS Thanks \n\nVIDEO: Apartment.4E.2012.720p.WEB-DL.X264-WEBiOS Thanks \nAUDIO: Apartment.4E.2012.720p.WEB-DL.X264-WEBiOS Thanks  \n_________________________________________________________________________________\n\nPlot:\n\nThree months ago, Piper met Mollie online. And Mollie changed everything. Now a \nknock at the door. John Sharp. Mollie's brother. He was sent to talk Piper out \nof the thing's she's threatening. But neither may be who they claim to be.\n_________________________________________________________________________________\n\nCast\n\nDirector: Russell Leigh Sharman\nWriter: Russell Leigh Sharman\nStars: Nicole Beharie, Christopher J. Domig \n_________________________________________","torrent":{"xt":"urn:btih:17d93315fd8532ee4dc28f073b73d69d625edb2e","amp;dn":"Apartment.4E.201","amp;tr":["udp%3A%2F%2Ftracker.openbittorrent.com%3A80","udp%3A%2F%2Fopen.demonii.com%3A1337","udp%3A%2F%2Ftracker.coppersurfer.tk%3A6969","udp%3A%2F%2Fexodus.desync.com%3A6969"],"infoHash":"17d93315fd8532ee4dc28f073b73d69d625edb2e","infoHashBuffer":{"type":"Buffer","data":[23,217,51,21,253,133,50,238,77,194,143,7,59,115,214,157,98,94,219,46]},"announce":[],"urlList":[]}}